<svg xmlns="http://www.w3.org/2000/svg" xmlns:xlink="http://www.w3.org/1999/xlink" xmlns:s="https://github.com/nturley/netlistsvg" width="2153" height="885.5">
  <style>svg {
    stroke:#000;
    fill:none;
  }
  text {
    fill:#000;
    stroke:none;
    font-size:10px;
    font-weight: bold;
    font-family: "Courier New", monospace;
  }
  .nodelabel {
    text-anchor: middle;
  }
  .inputPortLabel {
    text-anchor: end;
  }
  .splitjoinBody {
    fill:#000;
  }</style>
  <g s:type="generic" transform="translate(1824,408)" s:width="30" s:height="40" id="cell_$reduce_and$rtl/insertion_sort.v:31$1">
    <text x="15" y="-4" class="nodelabel cell_$reduce_and$rtl/insertion_sort.v:31$1" s:attribute="ref">$reduce_and</text>
    <rect width="30" height="20" s:generic="body" class="cell_$reduce_and$rtl/insertion_sort.v:31$1"/>
    <g transform="translate(0,10)" s:x="0" s:y="10" s:pid="in0" id="port_$reduce_and$rtl/insertion_sort.v:31$1~A">
      <text x="-3" y="-4" class="inputPortLabel cell_$reduce_and$rtl/insertion_sort.v:31$1">A</text>
    </g>
    <g transform="translate(30,10)" s:x="30" s:y="10" s:pid="out0" id="port_$reduce_and$rtl/insertion_sort.v:31$1~Y">
      <text x="5" y="-4" style="fill:#000; stroke:none" class="cell_$reduce_and$rtl/insertion_sort.v:31$1">Y</text>
    </g>
  </g>
  <g s:type="generic" transform="translate(144,128)" s:width="30" s:height="40" id="cell_GEN_PE[0].pe_inst">
    <text x="15" y="-4" class="nodelabel cell_GEN_PE[0].pe_inst" s:attribute="ref">$paramod\ins_sort_pe\DATA_WIDTH=s32'00000000000000000000000000000100</text>
    <rect width="30" height="80" s:generic="body" class="cell_GEN_PE[0].pe_inst"/>
    <g transform="translate(0,10)" s:x="0" s:y="10" s:pid="in0" id="port_GEN_PE[0].pe_inst~clk">
      <text x="-3" y="-4" class="inputPortLabel cell_GEN_PE[0].pe_inst">clk</text>
    </g>
    <g transform="translate(0,30)" s:x="0" s:y="10" s:pid="in0" id="port_GEN_PE[0].pe_inst~din">
      <text x="-3" y="-4" class="inputPortLabel cell_GEN_PE[0].pe_inst">din</text>
    </g>
    <g transform="translate(0,50)" s:x="0" s:y="10" s:pid="in0" id="port_GEN_PE[0].pe_inst~rst">
      <text x="-3" y="-4" class="inputPortLabel cell_GEN_PE[0].pe_inst">rst</text>
    </g>
    <g transform="translate(0,70)" s:x="0" s:y="10" s:pid="in0" id="port_GEN_PE[0].pe_inst~valid_in">
      <text x="-3" y="-4" class="inputPortLabel cell_GEN_PE[0].pe_inst">valid_in</text>
    </g>
    <g transform="translate(30,10)" s:x="30" s:y="10" s:pid="out0" id="port_GEN_PE[0].pe_inst~dout">
      <text x="5" y="-4" style="fill:#000; stroke:none" class="cell_GEN_PE[0].pe_inst">dout</text>
    </g>
    <g transform="translate(30,30)" s:x="30" s:y="10" s:pid="out0" id="port_GEN_PE[0].pe_inst~hold_valid">
      <text x="5" y="-4" style="fill:#000; stroke:none" class="cell_GEN_PE[0].pe_inst">hold_valid</text>
    </g>
    <g transform="translate(30,50)" s:x="30" s:y="10" s:pid="out0" id="port_GEN_PE[0].pe_inst~hold_value">
      <text x="5" y="-4" style="fill:#000; stroke:none" class="cell_GEN_PE[0].pe_inst">hold_value</text>
    </g>
    <g transform="translate(30,70)" s:x="30" s:y="10" s:pid="out0" id="port_GEN_PE[0].pe_inst~valid_out">
      <text x="5" y="-4" style="fill:#000; stroke:none" class="cell_GEN_PE[0].pe_inst">valid_out</text>
    </g>
  </g>
  <g s:type="generic" transform="translate(330,210.5)" s:width="30" s:height="40" id="cell_GEN_PE[1].pe_inst">
    <text x="15" y="-4" class="nodelabel cell_GEN_PE[1].pe_inst" s:attribute="ref">$paramod\ins_sort_pe\DATA_WIDTH=s32'00000000000000000000000000000100</text>
    <rect width="30" height="80" s:generic="body" class="cell_GEN_PE[1].pe_inst"/>
    <g transform="translate(0,10)" s:x="0" s:y="10" s:pid="in0" id="port_GEN_PE[1].pe_inst~clk">
      <text x="-3" y="-4" class="inputPortLabel cell_GEN_PE[1].pe_inst">clk</text>
    </g>
    <g transform="translate(0,30)" s:x="0" s:y="10" s:pid="in0" id="port_GEN_PE[1].pe_inst~din">
      <text x="-3" y="-4" class="inputPortLabel cell_GEN_PE[1].pe_inst">din</text>
    </g>
    <g transform="translate(0,50)" s:x="0" s:y="10" s:pid="in0" id="port_GEN_PE[1].pe_inst~rst">
      <text x="-3" y="-4" class="inputPortLabel cell_GEN_PE[1].pe_inst">rst</text>
    </g>
    <g transform="translate(0,70)" s:x="0" s:y="10" s:pid="in0" id="port_GEN_PE[1].pe_inst~valid_in">
      <text x="-3" y="-4" class="inputPortLabel cell_GEN_PE[1].pe_inst">valid_in</text>
    </g>
    <g transform="translate(30,10)" s:x="30" s:y="10" s:pid="out0" id="port_GEN_PE[1].pe_inst~dout">
      <text x="5" y="-4" style="fill:#000; stroke:none" class="cell_GEN_PE[1].pe_inst">dout</text>
    </g>
    <g transform="translate(30,30)" s:x="30" s:y="10" s:pid="out0" id="port_GEN_PE[1].pe_inst~hold_valid">
      <text x="5" y="-4" style="fill:#000; stroke:none" class="cell_GEN_PE[1].pe_inst">hold_valid</text>
    </g>
    <g transform="translate(30,50)" s:x="30" s:y="10" s:pid="out0" id="port_GEN_PE[1].pe_inst~hold_value">
      <text x="5" y="-4" style="fill:#000; stroke:none" class="cell_GEN_PE[1].pe_inst">hold_value</text>
    </g>
    <g transform="translate(30,70)" s:x="30" s:y="10" s:pid="out0" id="port_GEN_PE[1].pe_inst~valid_out">
      <text x="5" y="-4" style="fill:#000; stroke:none" class="cell_GEN_PE[1].pe_inst">valid_out</text>
    </g>
  </g>
  <g s:type="generic" transform="translate(516,293)" s:width="30" s:height="40" id="cell_GEN_PE[2].pe_inst">
    <text x="15" y="-4" class="nodelabel cell_GEN_PE[2].pe_inst" s:attribute="ref">$paramod\ins_sort_pe\DATA_WIDTH=s32'00000000000000000000000000000100</text>
    <rect width="30" height="80" s:generic="body" class="cell_GEN_PE[2].pe_inst"/>
    <g transform="translate(0,10)" s:x="0" s:y="10" s:pid="in0" id="port_GEN_PE[2].pe_inst~clk">
      <text x="-3" y="-4" class="inputPortLabel cell_GEN_PE[2].pe_inst">clk</text>
    </g>
    <g transform="translate(0,30)" s:x="0" s:y="10" s:pid="in0" id="port_GEN_PE[2].pe_inst~din">
      <text x="-3" y="-4" class="inputPortLabel cell_GEN_PE[2].pe_inst">din</text>
    </g>
    <g transform="translate(0,50)" s:x="0" s:y="10" s:pid="in0" id="port_GEN_PE[2].pe_inst~rst">
      <text x="-3" y="-4" class="inputPortLabel cell_GEN_PE[2].pe_inst">rst</text>
    </g>
    <g transform="translate(0,70)" s:x="0" s:y="10" s:pid="in0" id="port_GEN_PE[2].pe_inst~valid_in">
      <text x="-3" y="-4" class="inputPortLabel cell_GEN_PE[2].pe_inst">valid_in</text>
    </g>
    <g transform="translate(30,10)" s:x="30" s:y="10" s:pid="out0" id="port_GEN_PE[2].pe_inst~dout">
      <text x="5" y="-4" style="fill:#000; stroke:none" class="cell_GEN_PE[2].pe_inst">dout</text>
    </g>
    <g transform="translate(30,30)" s:x="30" s:y="10" s:pid="out0" id="port_GEN_PE[2].pe_inst~hold_valid">
      <text x="5" y="-4" style="fill:#000; stroke:none" class="cell_GEN_PE[2].pe_inst">hold_valid</text>
    </g>
    <g transform="translate(30,50)" s:x="30" s:y="10" s:pid="out0" id="port_GEN_PE[2].pe_inst~hold_value">
      <text x="5" y="-4" style="fill:#000; stroke:none" class="cell_GEN_PE[2].pe_inst">hold_value</text>
    </g>
    <g transform="translate(30,70)" s:x="30" s:y="10" s:pid="out0" id="port_GEN_PE[2].pe_inst~valid_out">
      <text x="5" y="-4" style="fill:#000; stroke:none" class="cell_GEN_PE[2].pe_inst">valid_out</text>
    </g>
  </g>
  <g s:type="generic" transform="translate(702,375.5)" s:width="30" s:height="40" id="cell_GEN_PE[3].pe_inst">
    <text x="15" y="-4" class="nodelabel cell_GEN_PE[3].pe_inst" s:attribute="ref">$paramod\ins_sort_pe\DATA_WIDTH=s32'00000000000000000000000000000100</text>
    <rect width="30" height="80" s:generic="body" class="cell_GEN_PE[3].pe_inst"/>
    <g transform="translate(0,10)" s:x="0" s:y="10" s:pid="in0" id="port_GEN_PE[3].pe_inst~clk">
      <text x="-3" y="-4" class="inputPortLabel cell_GEN_PE[3].pe_inst">clk</text>
    </g>
    <g transform="translate(0,30)" s:x="0" s:y="10" s:pid="in0" id="port_GEN_PE[3].pe_inst~din">
      <text x="-3" y="-4" class="inputPortLabel cell_GEN_PE[3].pe_inst">din</text>
    </g>
    <g transform="translate(0,50)" s:x="0" s:y="10" s:pid="in0" id="port_GEN_PE[3].pe_inst~rst">
      <text x="-3" y="-4" class="inputPortLabel cell_GEN_PE[3].pe_inst">rst</text>
    </g>
    <g transform="translate(0,70)" s:x="0" s:y="10" s:pid="in0" id="port_GEN_PE[3].pe_inst~valid_in">
      <text x="-3" y="-4" class="inputPortLabel cell_GEN_PE[3].pe_inst">valid_in</text>
    </g>
    <g transform="translate(30,10)" s:x="30" s:y="10" s:pid="out0" id="port_GEN_PE[3].pe_inst~dout">
      <text x="5" y="-4" style="fill:#000; stroke:none" class="cell_GEN_PE[3].pe_inst">dout</text>
    </g>
    <g transform="translate(30,30)" s:x="30" s:y="10" s:pid="out0" id="port_GEN_PE[3].pe_inst~hold_valid">
      <text x="5" y="-4" style="fill:#000; stroke:none" class="cell_GEN_PE[3].pe_inst">hold_valid</text>
    </g>
    <g transform="translate(30,50)" s:x="30" s:y="10" s:pid="out0" id="port_GEN_PE[3].pe_inst~hold_value">
      <text x="5" y="-4" style="fill:#000; stroke:none" class="cell_GEN_PE[3].pe_inst">hold_value</text>
    </g>
    <g transform="translate(30,70)" s:x="30" s:y="10" s:pid="out0" id="port_GEN_PE[3].pe_inst~valid_out">
      <text x="5" y="-4" style="fill:#000; stroke:none" class="cell_GEN_PE[3].pe_inst">valid_out</text>
    </g>
  </g>
  <g s:type="generic" transform="translate(888,458)" s:width="30" s:height="40" id="cell_GEN_PE[4].pe_inst">
    <text x="15" y="-4" class="nodelabel cell_GEN_PE[4].pe_inst" s:attribute="ref">$paramod\ins_sort_pe\DATA_WIDTH=s32'00000000000000000000000000000100</text>
    <rect width="30" height="80" s:generic="body" class="cell_GEN_PE[4].pe_inst"/>
    <g transform="translate(0,10)" s:x="0" s:y="10" s:pid="in0" id="port_GEN_PE[4].pe_inst~clk">
      <text x="-3" y="-4" class="inputPortLabel cell_GEN_PE[4].pe_inst">clk</text>
    </g>
    <g transform="translate(0,30)" s:x="0" s:y="10" s:pid="in0" id="port_GEN_PE[4].pe_inst~din">
      <text x="-3" y="-4" class="inputPortLabel cell_GEN_PE[4].pe_inst">din</text>
    </g>
    <g transform="translate(0,50)" s:x="0" s:y="10" s:pid="in0" id="port_GEN_PE[4].pe_inst~rst">
      <text x="-3" y="-4" class="inputPortLabel cell_GEN_PE[4].pe_inst">rst</text>
    </g>
    <g transform="translate(0,70)" s:x="0" s:y="10" s:pid="in0" id="port_GEN_PE[4].pe_inst~valid_in">
      <text x="-3" y="-4" class="inputPortLabel cell_GEN_PE[4].pe_inst">valid_in</text>
    </g>
    <g transform="translate(30,10)" s:x="30" s:y="10" s:pid="out0" id="port_GEN_PE[4].pe_inst~dout">
      <text x="5" y="-4" style="fill:#000; stroke:none" class="cell_GEN_PE[4].pe_inst">dout</text>
    </g>
    <g transform="translate(30,30)" s:x="30" s:y="10" s:pid="out0" id="port_GEN_PE[4].pe_inst~hold_valid">
      <text x="5" y="-4" style="fill:#000; stroke:none" class="cell_GEN_PE[4].pe_inst">hold_valid</text>
    </g>
    <g transform="translate(30,50)" s:x="30" s:y="10" s:pid="out0" id="port_GEN_PE[4].pe_inst~hold_value">
      <text x="5" y="-4" style="fill:#000; stroke:none" class="cell_GEN_PE[4].pe_inst">hold_value</text>
    </g>
    <g transform="translate(30,70)" s:x="30" s:y="10" s:pid="out0" id="port_GEN_PE[4].pe_inst~valid_out">
      <text x="5" y="-4" style="fill:#000; stroke:none" class="cell_GEN_PE[4].pe_inst">valid_out</text>
    </g>
  </g>
  <g s:type="generic" transform="translate(1074,540.5)" s:width="30" s:height="40" id="cell_GEN_PE[5].pe_inst">
    <text x="15" y="-4" class="nodelabel cell_GEN_PE[5].pe_inst" s:attribute="ref">$paramod\ins_sort_pe\DATA_WIDTH=s32'00000000000000000000000000000100</text>
    <rect width="30" height="80" s:generic="body" class="cell_GEN_PE[5].pe_inst"/>
    <g transform="translate(0,10)" s:x="0" s:y="10" s:pid="in0" id="port_GEN_PE[5].pe_inst~clk">
      <text x="-3" y="-4" class="inputPortLabel cell_GEN_PE[5].pe_inst">clk</text>
    </g>
    <g transform="translate(0,30)" s:x="0" s:y="10" s:pid="in0" id="port_GEN_PE[5].pe_inst~din">
      <text x="-3" y="-4" class="inputPortLabel cell_GEN_PE[5].pe_inst">din</text>
    </g>
    <g transform="translate(0,50)" s:x="0" s:y="10" s:pid="in0" id="port_GEN_PE[5].pe_inst~rst">
      <text x="-3" y="-4" class="inputPortLabel cell_GEN_PE[5].pe_inst">rst</text>
    </g>
    <g transform="translate(0,70)" s:x="0" s:y="10" s:pid="in0" id="port_GEN_PE[5].pe_inst~valid_in">
      <text x="-3" y="-4" class="inputPortLabel cell_GEN_PE[5].pe_inst">valid_in</text>
    </g>
    <g transform="translate(30,10)" s:x="30" s:y="10" s:pid="out0" id="port_GEN_PE[5].pe_inst~dout">
      <text x="5" y="-4" style="fill:#000; stroke:none" class="cell_GEN_PE[5].pe_inst">dout</text>
    </g>
    <g transform="translate(30,30)" s:x="30" s:y="10" s:pid="out0" id="port_GEN_PE[5].pe_inst~hold_valid">
      <text x="5" y="-4" style="fill:#000; stroke:none" class="cell_GEN_PE[5].pe_inst">hold_valid</text>
    </g>
    <g transform="translate(30,50)" s:x="30" s:y="10" s:pid="out0" id="port_GEN_PE[5].pe_inst~hold_value">
      <text x="5" y="-4" style="fill:#000; stroke:none" class="cell_GEN_PE[5].pe_inst">hold_value</text>
    </g>
    <g transform="translate(30,70)" s:x="30" s:y="10" s:pid="out0" id="port_GEN_PE[5].pe_inst~valid_out">
      <text x="5" y="-4" style="fill:#000; stroke:none" class="cell_GEN_PE[5].pe_inst">valid_out</text>
    </g>
  </g>
  <g s:type="generic" transform="translate(1260,623)" s:width="30" s:height="40" id="cell_GEN_PE[6].pe_inst">
    <text x="15" y="-4" class="nodelabel cell_GEN_PE[6].pe_inst" s:attribute="ref">$paramod\ins_sort_pe\DATA_WIDTH=s32'00000000000000000000000000000100</text>
    <rect width="30" height="80" s:generic="body" class="cell_GEN_PE[6].pe_inst"/>
    <g transform="translate(0,10)" s:x="0" s:y="10" s:pid="in0" id="port_GEN_PE[6].pe_inst~clk">
      <text x="-3" y="-4" class="inputPortLabel cell_GEN_PE[6].pe_inst">clk</text>
    </g>
    <g transform="translate(0,30)" s:x="0" s:y="10" s:pid="in0" id="port_GEN_PE[6].pe_inst~din">
      <text x="-3" y="-4" class="inputPortLabel cell_GEN_PE[6].pe_inst">din</text>
    </g>
    <g transform="translate(0,50)" s:x="0" s:y="10" s:pid="in0" id="port_GEN_PE[6].pe_inst~rst">
      <text x="-3" y="-4" class="inputPortLabel cell_GEN_PE[6].pe_inst">rst</text>
    </g>
    <g transform="translate(0,70)" s:x="0" s:y="10" s:pid="in0" id="port_GEN_PE[6].pe_inst~valid_in">
      <text x="-3" y="-4" class="inputPortLabel cell_GEN_PE[6].pe_inst">valid_in</text>
    </g>
    <g transform="translate(30,10)" s:x="30" s:y="10" s:pid="out0" id="port_GEN_PE[6].pe_inst~dout">
      <text x="5" y="-4" style="fill:#000; stroke:none" class="cell_GEN_PE[6].pe_inst">dout</text>
    </g>
    <g transform="translate(30,30)" s:x="30" s:y="10" s:pid="out0" id="port_GEN_PE[6].pe_inst~hold_valid">
      <text x="5" y="-4" style="fill:#000; stroke:none" class="cell_GEN_PE[6].pe_inst">hold_valid</text>
    </g>
    <g transform="translate(30,50)" s:x="30" s:y="10" s:pid="out0" id="port_GEN_PE[6].pe_inst~hold_value">
      <text x="5" y="-4" style="fill:#000; stroke:none" class="cell_GEN_PE[6].pe_inst">hold_value</text>
    </g>
    <g transform="translate(30,70)" s:x="30" s:y="10" s:pid="out0" id="port_GEN_PE[6].pe_inst~valid_out">
      <text x="5" y="-4" style="fill:#000; stroke:none" class="cell_GEN_PE[6].pe_inst">valid_out</text>
    </g>
  </g>
  <g s:type="generic" transform="translate(1446,705.5)" s:width="30" s:height="40" id="cell_GEN_PE[7].pe_inst">
    <text x="15" y="-4" class="nodelabel cell_GEN_PE[7].pe_inst" s:attribute="ref">$paramod\ins_sort_pe\DATA_WIDTH=s32'00000000000000000000000000000100</text>
    <rect width="30" height="80" s:generic="body" class="cell_GEN_PE[7].pe_inst"/>
    <g transform="translate(0,10)" s:x="0" s:y="10" s:pid="in0" id="port_GEN_PE[7].pe_inst~clk">
      <text x="-3" y="-4" class="inputPortLabel cell_GEN_PE[7].pe_inst">clk</text>
    </g>
    <g transform="translate(0,30)" s:x="0" s:y="10" s:pid="in0" id="port_GEN_PE[7].pe_inst~din">
      <text x="-3" y="-4" class="inputPortLabel cell_GEN_PE[7].pe_inst">din</text>
    </g>
    <g transform="translate(0,50)" s:x="0" s:y="10" s:pid="in0" id="port_GEN_PE[7].pe_inst~rst">
      <text x="-3" y="-4" class="inputPortLabel cell_GEN_PE[7].pe_inst">rst</text>
    </g>
    <g transform="translate(0,70)" s:x="0" s:y="10" s:pid="in0" id="port_GEN_PE[7].pe_inst~valid_in">
      <text x="-3" y="-4" class="inputPortLabel cell_GEN_PE[7].pe_inst">valid_in</text>
    </g>
    <g transform="translate(30,10)" s:x="30" s:y="10" s:pid="out0" id="port_GEN_PE[7].pe_inst~dout">
      <text x="5" y="-4" style="fill:#000; stroke:none" class="cell_GEN_PE[7].pe_inst">dout</text>
    </g>
    <g transform="translate(30,30)" s:x="30" s:y="10" s:pid="out0" id="port_GEN_PE[7].pe_inst~hold_valid">
      <text x="5" y="-4" style="fill:#000; stroke:none" class="cell_GEN_PE[7].pe_inst">hold_valid</text>
    </g>
    <g transform="translate(30,50)" s:x="30" s:y="10" s:pid="out0" id="port_GEN_PE[7].pe_inst~hold_value">
      <text x="5" y="-4" style="fill:#000; stroke:none" class="cell_GEN_PE[7].pe_inst">hold_value</text>
    </g>
    <g transform="translate(30,70)" s:x="30" s:y="10" s:pid="out0" id="port_GEN_PE[7].pe_inst~valid_out">
      <text x="5" y="-4" style="fill:#000; stroke:none" class="cell_GEN_PE[7].pe_inst">valid_out</text>
    </g>
  </g>
  <g s:type="generic" transform="translate(1632,788)" s:width="30" s:height="40" id="cell_GEN_PE[8].pe_inst">
    <text x="15" y="-4" class="nodelabel cell_GEN_PE[8].pe_inst" s:attribute="ref">$paramod\ins_sort_pe\DATA_WIDTH=s32'00000000000000000000000000000100</text>
    <rect width="30" height="80" s:generic="body" class="cell_GEN_PE[8].pe_inst"/>
    <g transform="translate(0,10)" s:x="0" s:y="10" s:pid="in0" id="port_GEN_PE[8].pe_inst~clk">
      <text x="-3" y="-4" class="inputPortLabel cell_GEN_PE[8].pe_inst">clk</text>
    </g>
    <g transform="translate(0,30)" s:x="0" s:y="10" s:pid="in0" id="port_GEN_PE[8].pe_inst~din">
      <text x="-3" y="-4" class="inputPortLabel cell_GEN_PE[8].pe_inst">din</text>
    </g>
    <g transform="translate(0,50)" s:x="0" s:y="10" s:pid="in0" id="port_GEN_PE[8].pe_inst~rst">
      <text x="-3" y="-4" class="inputPortLabel cell_GEN_PE[8].pe_inst">rst</text>
    </g>
    <g transform="translate(0,70)" s:x="0" s:y="10" s:pid="in0" id="port_GEN_PE[8].pe_inst~valid_in">
      <text x="-3" y="-4" class="inputPortLabel cell_GEN_PE[8].pe_inst">valid_in</text>
    </g>
    <g transform="translate(30,10)" s:x="30" s:y="10" s:pid="out0" id="port_GEN_PE[8].pe_inst~dout">
      <text x="5" y="-4" style="fill:#000; stroke:none" class="cell_GEN_PE[8].pe_inst">dout</text>
    </g>
    <g transform="translate(30,30)" s:x="30" s:y="10" s:pid="out0" id="port_GEN_PE[8].pe_inst~hold_valid">
      <text x="5" y="-4" style="fill:#000; stroke:none" class="cell_GEN_PE[8].pe_inst">hold_valid</text>
    </g>
    <g transform="translate(30,50)" s:x="30" s:y="10" s:pid="out0" id="port_GEN_PE[8].pe_inst~hold_value">
      <text x="5" y="-4" style="fill:#000; stroke:none" class="cell_GEN_PE[8].pe_inst">hold_value</text>
    </g>
    <g transform="translate(30,70)" s:x="30" s:y="10" s:pid="out0" id="port_GEN_PE[8].pe_inst~valid_out">
      <text x="5" y="-4" style="fill:#000; stroke:none" class="cell_GEN_PE[8].pe_inst">valid_out</text>
    </g>
  </g>
  <g s:type="inputExt" transform="translate(12,788.5)" s:width="30" s:height="20" id="cell_clk">
    <text x="15" y="-4" class="nodelabel cell_clk" s:attribute="ref">clk</text>
    <s:alias val="$_inputExt_"/>
    <path d="M0,0 L0,20 L15,20 L30,10 L15,0 Z" class="cell_clk"/>
    <g s:x="28" s:y="10" s:pid="Y"/>
  </g>
  <g s:type="inputExt" transform="translate(12,853.5)" s:width="30" s:height="20" id="cell_rst">
    <text x="15" y="-4" class="nodelabel cell_rst" s:attribute="ref">rst</text>
    <s:alias val="$_inputExt_"/>
    <path d="M0,0 L0,20 L15,20 L30,10 L15,0 Z" class="cell_rst"/>
    <g s:x="28" s:y="10" s:pid="Y"/>
  </g>
  <g s:type="inputExt" transform="translate(12,123.5)" s:width="30" s:height="20" id="cell_din">
    <text x="15" y="-4" class="nodelabel cell_din" s:attribute="ref">din</text>
    <s:alias val="$_inputExt_"/>
    <path d="M0,0 L0,20 L15,20 L30,10 L15,0 Z" class="cell_din"/>
    <g s:x="28" s:y="10" s:pid="Y"/>
  </g>
  <g s:type="inputExt" transform="translate(12,188.5)" s:width="30" s:height="20" id="cell_valid_in">
    <text x="15" y="-4" class="nodelabel cell_valid_in" s:attribute="ref">valid_in</text>
    <s:alias val="$_inputExt_"/>
    <path d="M0,0 L0,20 L15,20 L30,10 L15,0 Z" class="cell_valid_in"/>
    <g s:x="28" s:y="10" s:pid="Y"/>
  </g>
  <g s:type="outputExt" transform="translate(2081,34.5)" s:width="30" s:height="20" id="cell_sorted_out">
    <text x="15" y="-4" class="nodelabel cell_sorted_out" s:attribute="ref">sorted_out</text>
    <s:alias val="$_outputExt_"/>
    <path d="M30,0 L30,20 L15,20 L0,10 L15,0 Z" class="cell_sorted_out"/>
    <g s:x="0" s:y="10" s:pid="A"/>
  </g>
  <g s:type="outputExt" transform="translate(2081,408.5)" s:width="30" s:height="20" id="cell_done">
    <text x="15" y="-4" class="nodelabel cell_done" s:attribute="ref">done</text>
    <s:alias val="$_outputExt_"/>
    <path d="M30,0 L30,20 L15,20 L0,10 L15,0 Z" class="cell_done"/>
    <g s:x="0" s:y="10" s:pid="A"/>
  </g>
  <g s:type="join" transform="translate(1774,398)" s:width="4" s:height="40" id="cell_$join$,46,47,48,49,50,51,52,53,54,">
    <rect width="5" height="180" class="splitjoinBody" s:generic="body"/>
    <s:alias val="$_join_"/>
    <g s:x="5" s:y="20" s:pid="out"/>
    <g transform="translate(0,10)" s:x="0" s:y="10" s:pid="in0">
      <text x="-3" y="-4" class="inputPortLabel">0</text>
    </g>
    <g transform="translate(0,30)" s:x="0" s:y="10" s:pid="in0">
      <text x="-3" y="-4" class="inputPortLabel">1</text>
    </g>
    <g transform="translate(0,50)" s:x="0" s:y="10" s:pid="in0">
      <text x="-3" y="-4" class="inputPortLabel">2</text>
    </g>
    <g transform="translate(0,70)" s:x="0" s:y="10" s:pid="in0">
      <text x="-3" y="-4" class="inputPortLabel">3</text>
    </g>
    <g transform="translate(0,90)" s:x="0" s:y="10" s:pid="in0">
      <text x="-3" y="-4" class="inputPortLabel">4</text>
    </g>
    <g transform="translate(0,110)" s:x="0" s:y="10" s:pid="in0">
      <text x="-3" y="-4" class="inputPortLabel">5</text>
    </g>
    <g transform="translate(0,130)" s:x="0" s:y="10" s:pid="in0">
      <text x="-3" y="-4" class="inputPortLabel">6</text>
    </g>
    <g transform="translate(0,150)" s:x="0" s:y="10" s:pid="in0">
      <text x="-3" y="-4" class="inputPortLabel">7</text>
    </g>
    <g transform="translate(0,170)" s:x="0" s:y="10" s:pid="in0">
      <text x="-3" y="-4" class="inputPortLabel">8</text>
    </g>
  </g>
  <g s:type="join" transform="translate(1850.375,24)" s:width="4" s:height="40" id="cell_$join$,9,10,11,12,13,14,15,16,17,18,19,20,21,22,23,24,25,26,27,28,29,30,31,32,33,34,35,36,37,38,39,40,41,42,43,44,">
    <rect width="5" height="180" class="splitjoinBody" s:generic="body"/>
    <s:alias val="$_join_"/>
    <g s:x="5" s:y="20" s:pid="out"/>
    <g transform="translate(0,10)" s:x="0" s:y="10" s:pid="in0">
      <text x="-3" y="-4" class="inputPortLabel">0:3</text>
    </g>
    <g transform="translate(0,30)" s:x="0" s:y="10" s:pid="in0">
      <text x="-3" y="-4" class="inputPortLabel">4:7</text>
    </g>
    <g transform="translate(0,50)" s:x="0" s:y="10" s:pid="in0">
      <text x="-3" y="-4" class="inputPortLabel">8:11</text>
    </g>
    <g transform="translate(0,70)" s:x="0" s:y="10" s:pid="in0">
      <text x="-3" y="-4" class="inputPortLabel">12:15</text>
    </g>
    <g transform="translate(0,90)" s:x="0" s:y="10" s:pid="in0">
      <text x="-3" y="-4" class="inputPortLabel">16:19</text>
    </g>
    <g transform="translate(0,110)" s:x="0" s:y="10" s:pid="in0">
      <text x="-3" y="-4" class="inputPortLabel">20:23</text>
    </g>
    <g transform="translate(0,130)" s:x="0" s:y="10" s:pid="in0">
      <text x="-3" y="-4" class="inputPortLabel">24:27</text>
    </g>
    <g transform="translate(0,150)" s:x="0" s:y="10" s:pid="in0">
      <text x="-3" y="-4" class="inputPortLabel">28:31</text>
    </g>
    <g transform="translate(0,170)" s:x="0" s:y="10" s:pid="in0">
      <text x="-3" y="-4" class="inputPortLabel">32:35</text>
    </g>
  </g>
  <line x1="1780" x2="1824" y1="418.5" y2="418.5" class="net_46,47,48,49,50,51,52,53,54"/>
  <line x1="40" x2="70" y1="798.5" y2="798.5" class="net_2"/>
  <line x1="70" x2="70" y1="798.5" y2="138.5" class="net_2"/>
  <circle cx="70" cy="798.5" r="2" style="fill:#000" class="net_2"/>
  <line x1="70" x2="144" y1="138.5" y2="138.5" class="net_2"/>
  <line x1="40" x2="70" y1="798.5" y2="798.5" class="net_2"/>
  <line x1="70" x2="70" y1="798.5" y2="221" class="net_2"/>
  <circle cx="70" cy="221" r="2" style="fill:#000" class="net_2"/>
  <line x1="70" x2="330" y1="221" y2="221" class="net_2"/>
  <line x1="40" x2="70" y1="798.5" y2="798.5" class="net_2"/>
  <line x1="70" x2="70" y1="798.5" y2="303.5" class="net_2"/>
  <circle cx="70" cy="303.5" r="2" style="fill:#000" class="net_2"/>
  <line x1="70" x2="516" y1="303.5" y2="303.5" class="net_2"/>
  <line x1="40" x2="70" y1="798.5" y2="798.5" class="net_2"/>
  <line x1="70" x2="70" y1="798.5" y2="386" class="net_2"/>
  <circle cx="70" cy="386" r="2" style="fill:#000" class="net_2"/>
  <line x1="70" x2="702" y1="386" y2="386" class="net_2"/>
  <line x1="40" x2="70" y1="798.5" y2="798.5" class="net_2"/>
  <line x1="70" x2="70" y1="798.5" y2="468.5" class="net_2"/>
  <circle cx="70" cy="468.5" r="2" style="fill:#000" class="net_2"/>
  <line x1="70" x2="888" y1="468.5" y2="468.5" class="net_2"/>
  <line x1="40" x2="70" y1="798.5" y2="798.5" class="net_2"/>
  <line x1="70" x2="70" y1="798.5" y2="551" class="net_2"/>
  <circle cx="70" cy="551" r="2" style="fill:#000" class="net_2"/>
  <line x1="70" x2="1074" y1="551" y2="551" class="net_2"/>
  <line x1="40" x2="70" y1="798.5" y2="798.5" class="net_2"/>
  <line x1="70" x2="70" y1="798.5" y2="633.5" class="net_2"/>
  <circle cx="70" cy="633.5" r="2" style="fill:#000" class="net_2"/>
  <line x1="70" x2="1260" y1="633.5" y2="633.5" class="net_2"/>
  <line x1="40" x2="70" y1="798.5" y2="798.5" class="net_2"/>
  <line x1="70" x2="70" y1="798.5" y2="716" class="net_2"/>
  <circle cx="70" cy="716" r="2" style="fill:#000" class="net_2"/>
  <line x1="70" x2="1446" y1="716" y2="716" class="net_2"/>
  <line x1="40" x2="1632" y1="798.5" y2="798.5" class="net_2"/>
  <line x1="40" x2="80" y1="133.5" y2="133.5" class="net_4,5,6,7"/>
  <line x1="80" x2="80" y1="133.5" y2="158.5" class="net_4,5,6,7"/>
  <line x1="80" x2="144" y1="158.5" y2="158.5" class="net_4,5,6,7"/>
  <line x1="40" x2="80" y1="863.5" y2="863.5" class="net_3"/>
  <line x1="80" x2="80" y1="863.5" y2="178.5" class="net_3"/>
  <circle cx="80" cy="863.5" r="2" style="fill:#000" class="net_3"/>
  <line x1="80" x2="144" y1="178.5" y2="178.5" class="net_3"/>
  <line x1="40" x2="80" y1="863.5" y2="863.5" class="net_3"/>
  <line x1="80" x2="80" y1="863.5" y2="292.5" class="net_3"/>
  <line x1="80" x2="266" y1="292.5" y2="292.5" class="net_3"/>
  <line x1="266" x2="266" y1="292.5" y2="261" class="net_3"/>
  <circle cx="80" cy="292.5" r="2" style="fill:#000" class="net_3"/>
  <line x1="266" x2="330" y1="261" y2="261" class="net_3"/>
  <line x1="40" x2="80" y1="863.5" y2="863.5" class="net_3"/>
  <line x1="80" x2="80" y1="863.5" y2="375" class="net_3"/>
  <line x1="80" x2="452" y1="375" y2="375" class="net_3"/>
  <line x1="452" x2="452" y1="375" y2="343.5" class="net_3"/>
  <circle cx="80" cy="375" r="2" style="fill:#000" class="net_3"/>
  <line x1="452" x2="516" y1="343.5" y2="343.5" class="net_3"/>
  <line x1="40" x2="80" y1="863.5" y2="863.5" class="net_3"/>
  <line x1="80" x2="80" y1="863.5" y2="457.5" class="net_3"/>
  <line x1="80" x2="638" y1="457.5" y2="457.5" class="net_3"/>
  <line x1="638" x2="638" y1="457.5" y2="426" class="net_3"/>
  <circle cx="80" cy="457.5" r="2" style="fill:#000" class="net_3"/>
  <line x1="638" x2="702" y1="426" y2="426" class="net_3"/>
  <line x1="40" x2="80" y1="863.5" y2="863.5" class="net_3"/>
  <line x1="80" x2="80" y1="863.5" y2="540" class="net_3"/>
  <line x1="80" x2="824" y1="540" y2="540" class="net_3"/>
  <line x1="824" x2="824" y1="540" y2="508.5" class="net_3"/>
  <circle cx="80" cy="540" r="2" style="fill:#000" class="net_3"/>
  <line x1="824" x2="888" y1="508.5" y2="508.5" class="net_3"/>
  <line x1="40" x2="80" y1="863.5" y2="863.5" class="net_3"/>
  <line x1="80" x2="80" y1="863.5" y2="622.5" class="net_3"/>
  <line x1="80" x2="1010" y1="622.5" y2="622.5" class="net_3"/>
  <line x1="1010" x2="1010" y1="622.5" y2="591" class="net_3"/>
  <circle cx="80" cy="622.5" r="2" style="fill:#000" class="net_3"/>
  <line x1="1010" x2="1074" y1="591" y2="591" class="net_3"/>
  <line x1="40" x2="80" y1="863.5" y2="863.5" class="net_3"/>
  <line x1="80" x2="80" y1="863.5" y2="705" class="net_3"/>
  <line x1="80" x2="1196" y1="705" y2="705" class="net_3"/>
  <line x1="1196" x2="1196" y1="705" y2="673.5" class="net_3"/>
  <circle cx="80" cy="705" r="2" style="fill:#000" class="net_3"/>
  <line x1="1196" x2="1260" y1="673.5" y2="673.5" class="net_3"/>
  <line x1="40" x2="80" y1="863.5" y2="863.5" class="net_3"/>
  <line x1="80" x2="80" y1="863.5" y2="787.5" class="net_3"/>
  <line x1="80" x2="1382" y1="787.5" y2="787.5" class="net_3"/>
  <line x1="1382" x2="1382" y1="787.5" y2="756" class="net_3"/>
  <circle cx="80" cy="787.5" r="2" style="fill:#000" class="net_3"/>
  <line x1="1382" x2="1446" y1="756" y2="756" class="net_3"/>
  <line x1="40" x2="1568" y1="863.5" y2="863.5" class="net_3"/>
  <line x1="1568" x2="1568" y1="863.5" y2="838.5" class="net_3"/>
  <line x1="1568" x2="1632" y1="838.5" y2="838.5" class="net_3"/>
  <line x1="40" x2="144" y1="198.5" y2="198.5" class="net_8"/>
  <line x1="175" x2="266" y1="138.5" y2="138.5" class="net_55,56,57,58"/>
  <line x1="266" x2="266" y1="138.5" y2="241" class="net_55,56,57,58"/>
  <line x1="266" x2="330" y1="241" y2="241" class="net_55,56,57,58"/>
  <line x1="175" x2="256" y1="198.5" y2="198.5" class="net_59"/>
  <line x1="256" x2="256" y1="198.5" y2="281" class="net_59"/>
  <line x1="256" x2="330" y1="281" y2="281" class="net_59"/>
  <line x1="361" x2="452" y1="221" y2="221" class="net_60,61,62,63"/>
  <line x1="452" x2="452" y1="221" y2="323.5" class="net_60,61,62,63"/>
  <line x1="452" x2="516" y1="323.5" y2="323.5" class="net_60,61,62,63"/>
  <line x1="361" x2="442" y1="281" y2="281" class="net_64"/>
  <line x1="442" x2="442" y1="281" y2="363.5" class="net_64"/>
  <line x1="442" x2="516" y1="363.5" y2="363.5" class="net_64"/>
  <line x1="547" x2="638" y1="303.5" y2="303.5" class="net_65,66,67,68"/>
  <line x1="638" x2="638" y1="303.5" y2="406" class="net_65,66,67,68"/>
  <line x1="638" x2="702" y1="406" y2="406" class="net_65,66,67,68"/>
  <line x1="547" x2="628" y1="363.5" y2="363.5" class="net_69"/>
  <line x1="628" x2="628" y1="363.5" y2="446" class="net_69"/>
  <line x1="628" x2="702" y1="446" y2="446" class="net_69"/>
  <line x1="733" x2="824" y1="386" y2="386" class="net_70,71,72,73"/>
  <line x1="824" x2="824" y1="386" y2="488.5" class="net_70,71,72,73"/>
  <line x1="824" x2="888" y1="488.5" y2="488.5" class="net_70,71,72,73"/>
  <line x1="733" x2="814" y1="446" y2="446" class="net_74"/>
  <line x1="814" x2="814" y1="446" y2="528.5" class="net_74"/>
  <line x1="814" x2="888" y1="528.5" y2="528.5" class="net_74"/>
  <line x1="919" x2="1010" y1="468.5" y2="468.5" class="net_75,76,77,78"/>
  <line x1="1010" x2="1010" y1="468.5" y2="571" class="net_75,76,77,78"/>
  <line x1="1010" x2="1074" y1="571" y2="571" class="net_75,76,77,78"/>
  <line x1="919" x2="1000" y1="528.5" y2="528.5" class="net_79"/>
  <line x1="1000" x2="1000" y1="528.5" y2="611" class="net_79"/>
  <line x1="1000" x2="1074" y1="611" y2="611" class="net_79"/>
  <line x1="1105" x2="1196" y1="551" y2="551" class="net_80,81,82,83"/>
  <line x1="1196" x2="1196" y1="551" y2="653.5" class="net_80,81,82,83"/>
  <line x1="1196" x2="1260" y1="653.5" y2="653.5" class="net_80,81,82,83"/>
  <line x1="1105" x2="1186" y1="611" y2="611" class="net_84"/>
  <line x1="1186" x2="1186" y1="611" y2="693.5" class="net_84"/>
  <line x1="1186" x2="1260" y1="693.5" y2="693.5" class="net_84"/>
  <line x1="1291" x2="1382" y1="633.5" y2="633.5" class="net_85,86,87,88"/>
  <line x1="1382" x2="1382" y1="633.5" y2="736" class="net_85,86,87,88"/>
  <line x1="1382" x2="1446" y1="736" y2="736" class="net_85,86,87,88"/>
  <line x1="1291" x2="1372" y1="693.5" y2="693.5" class="net_89"/>
  <line x1="1372" x2="1372" y1="693.5" y2="776" class="net_89"/>
  <line x1="1372" x2="1446" y1="776" y2="776" class="net_89"/>
  <line x1="1477" x2="1568" y1="716" y2="716" class="net_90,91,92,93"/>
  <line x1="1568" x2="1568" y1="716" y2="818.5" class="net_90,91,92,93"/>
  <line x1="1568" x2="1632" y1="818.5" y2="818.5" class="net_90,91,92,93"/>
  <line x1="1477" x2="1558" y1="776" y2="776" class="net_94"/>
  <line x1="1558" x2="1558" y1="776" y2="858.5" class="net_94"/>
  <line x1="1558" x2="1632" y1="858.5" y2="858.5" class="net_94"/>
  <line x1="1856.375" x2="2081" y1="44.5" y2="44.5" class="net_9,10,11,12,13,14,15,16,17,18,19,20,21,22,23,24,25,26,27,28,29,30,31,32,33,34,35,36,37,38,39,40,41,42,43,44"/>
  <line x1="1855" x2="2081" y1="418.5" y2="418.5" class="net_45"/>
  <line x1="175" x2="1774.5" y1="158.5" y2="158.5" class="net_46"/>
  <line x1="1774.5" x2="1774.5" y1="158.5" y2="408" class="net_46"/>
  <line x1="361" x2="1764" y1="241" y2="241" class="net_47"/>
  <line x1="1764" x2="1764" y1="241" y2="428.5" class="net_47"/>
  <line x1="1764" x2="1774" y1="428.5" y2="428.5" class="net_47"/>
  <line x1="547" x2="1754" y1="323.5" y2="323.5" class="net_48"/>
  <line x1="1754" x2="1754" y1="323.5" y2="448.5" class="net_48"/>
  <line x1="1754" x2="1774" y1="448.5" y2="448.5" class="net_48"/>
  <line x1="733" x2="1744" y1="406" y2="406" class="net_49"/>
  <line x1="1744" x2="1744" y1="406" y2="468.5" class="net_49"/>
  <line x1="1744" x2="1774" y1="468.5" y2="468.5" class="net_49"/>
  <line x1="919" x2="1774" y1="488.5" y2="488.5" class="net_50"/>
  <line x1="1105" x2="1744" y1="571" y2="571" class="net_51"/>
  <line x1="1744" x2="1744" y1="571" y2="508.5" class="net_51"/>
  <line x1="1744" x2="1774" y1="508.5" y2="508.5" class="net_51"/>
  <line x1="1291" x2="1754" y1="653.5" y2="653.5" class="net_52"/>
  <line x1="1754" x2="1754" y1="653.5" y2="528.5" class="net_52"/>
  <line x1="1754" x2="1774" y1="528.5" y2="528.5" class="net_52"/>
  <line x1="1477" x2="1764" y1="736" y2="736" class="net_53"/>
  <line x1="1764" x2="1764" y1="736" y2="548.5" class="net_53"/>
  <line x1="1764" x2="1774" y1="548.5" y2="548.5" class="net_53"/>
  <line x1="1663" x2="1774.5" y1="818.5" y2="818.5" class="net_54"/>
  <line x1="1774.5" x2="1774.5" y1="818.5" y2="569" class="net_54"/>
  <line x1="175" x2="256" y1="178.5" y2="178.5" class="net_9,10,11,12"/>
  <line x1="256" x2="256" y1="178.5" y2="12" class="net_9,10,11,12"/>
  <line x1="256" x2="1850.875" y1="12" y2="12" class="net_9,10,11,12"/>
  <line x1="1850.875" x2="1850.875" y1="12" y2="34" class="net_9,10,11,12"/>
  <line x1="361" x2="442" y1="261" y2="261" class="net_13,14,15,16"/>
  <line x1="442" x2="442" y1="261" y2="81.5" class="net_13,14,15,16"/>
  <line x1="442" x2="1792" y1="81.5" y2="81.5" class="net_13,14,15,16"/>
  <line x1="1792" x2="1792" y1="81.5" y2="54.5" class="net_13,14,15,16"/>
  <line x1="1792" x2="1850.375" y1="54.5" y2="54.5" class="net_13,14,15,16"/>
  <line x1="547" x2="628" y1="343.5" y2="343.5" class="net_17,18,19,20"/>
  <line x1="628" x2="628" y1="343.5" y2="92.5" class="net_17,18,19,20"/>
  <line x1="628" x2="1802" y1="92.5" y2="92.5" class="net_17,18,19,20"/>
  <line x1="1802" x2="1802" y1="92.5" y2="74.5" class="net_17,18,19,20"/>
  <line x1="1802" x2="1850.375" y1="74.5" y2="74.5" class="net_17,18,19,20"/>
  <line x1="733" x2="814" y1="426" y2="426" class="net_21,22,23,24"/>
  <line x1="814" x2="814" y1="426" y2="103.5" class="net_21,22,23,24"/>
  <line x1="814" x2="1792" y1="103.5" y2="103.5" class="net_21,22,23,24"/>
  <line x1="1792" x2="1792" y1="103.5" y2="94.5" class="net_21,22,23,24"/>
  <line x1="1792" x2="1850.375" y1="94.5" y2="94.5" class="net_21,22,23,24"/>
  <line x1="919" x2="1000" y1="508.5" y2="508.5" class="net_25,26,27,28"/>
  <line x1="1000" x2="1000" y1="508.5" y2="114.5" class="net_25,26,27,28"/>
  <line x1="1000" x2="1850.375" y1="114.5" y2="114.5" class="net_25,26,27,28"/>
  <line x1="1105" x2="1186" y1="591" y2="591" class="net_29,30,31,32"/>
  <line x1="1186" x2="1186" y1="591" y2="125.5" class="net_29,30,31,32"/>
  <line x1="1186" x2="1792" y1="125.5" y2="125.5" class="net_29,30,31,32"/>
  <line x1="1792" x2="1792" y1="125.5" y2="134.5" class="net_29,30,31,32"/>
  <line x1="1792" x2="1850.375" y1="134.5" y2="134.5" class="net_29,30,31,32"/>
  <line x1="1291" x2="1372" y1="673.5" y2="673.5" class="net_33,34,35,36"/>
  <line x1="1372" x2="1372" y1="673.5" y2="136.5" class="net_33,34,35,36"/>
  <line x1="1372" x2="1802" y1="136.5" y2="136.5" class="net_33,34,35,36"/>
  <line x1="1802" x2="1802" y1="136.5" y2="154.5" class="net_33,34,35,36"/>
  <line x1="1802" x2="1850.375" y1="154.5" y2="154.5" class="net_33,34,35,36"/>
  <line x1="1477" x2="1558" y1="756" y2="756" class="net_37,38,39,40"/>
  <line x1="1558" x2="1558" y1="756" y2="147.5" class="net_37,38,39,40"/>
  <line x1="1558" x2="1792" y1="147.5" y2="147.5" class="net_37,38,39,40"/>
  <line x1="1792" x2="1792" y1="147.5" y2="174.5" class="net_37,38,39,40"/>
  <line x1="1792" x2="1850.375" y1="174.5" y2="174.5" class="net_37,38,39,40"/>
  <line x1="1663" x2="1792" y1="838.5" y2="838.5" class="net_41,42,43,44"/>
  <line x1="1792" x2="1792" y1="838.5" y2="388" class="net_41,42,43,44"/>
  <line x1="1792" x2="1850.875" y1="388" y2="388" class="net_41,42,43,44"/>
  <line x1="1850.875" x2="1850.875" y1="388" y2="195" class="net_41,42,43,44"/>
</svg>
